<svg xmlns="http://www.w3.org/2000/svg" xmlns:v="https://svgstorm.com"
viewBox = "0 0 512 512"
width="512"
height="512">
<g fill="None" fill-opacity="0.0" stroke="#000000" stroke-opacity="0.00" stroke-width="0.3"><path d="
M 0.00 512.00 
L 512.00 512.00
L 512.00 0.00
L 0.00 0.00
L 0.00 512.00
M 430.00 122.00 
C 424.37 138.18 417.59 150.06 412.00 166.00
C 356.70 139.24 289.80 120.99 216.00 121.00
C 216.00 104.67 216.00 88.33 216.00 72.00
C 264.44 70.12 306.30 75.07 342.70 85.31 C 379.09 95.54 400.97 107.45 430.00 122.00
M 459.00 230.00 
C 370.09 190.61 262.50 159.98 149.00 154.00
C 171.90 148.39 188.99 137.69 214.67 136.33 C 240.35 134.97 263.67 139.74 285.25 142.20 C 306.83 144.66 326.36 152.58 346.30 157.71 C 366.24 162.83 383.54 170.81 401.30 178.71 C 419.07 186.61 441.58 211.67 459.00 230.00
M 203.00 174.00 
C 200.61 180.89 194.04 184.27 194.00 192.00
C 183.11 191.67 175.60 185.34 166.08 181.87 C 156.56 178.40 149.02 173.79 138.00 170.00
C 161.09 168.46 181.32 174.05 203.00 174.00
M 265.00 184.00 
C 287.24 216.38 298.83 250.89 304.00 296.00
C 283.14 296.22 250.71 295.70 231.00 296.00 C 211.29 296.30 200.67 297.86 185.25 300.39 C 169.83 302.93 164.59 306.03 150.08 310.13 C 135.57 314.24 117.31 312.00 104.25 316.26 C 91.19 320.53 81.02 323.95 70.08 329.13 C 59.14 334.31 47.84 337.40 36.00 343.00
C 47.64 323.80 57.05 307.32 76.25 288.25 C 95.45 269.17 109.51 260.44 128.75 252.41 C 147.99 244.38 170.23 239.68 196.00 240.00
C 203.09 229.76 199.95 214.25 204.40 204.25 C 208.85 194.26 213.41 186.97 221.00 177.00
C 235.87 179.22 250.02 183.35 265.00 184.00
M 392.00 220.00 
C 391.65 232.85 388.29 244.52 386.00 256.00
C 361.67 256.00 337.33 256.00 313.00 256.00
C 308.25 229.87 298.75 211.09 288.00 190.00
C 324.50 197.85 358.35 208.72 392.00 220.00
M 437.00 240.00 
C 426.17 237.16 416.82 236.14 406.00 235.00
C 405.88 231.57 408.72 229.59 407.00 226.00
C 412.93 228.00 418.54 230.20 423.30 232.71 C 428.05 235.22 434.96 234.52 437.00 240.00
M 379.00 272.00 
C 376.29 277.51 374.38 281.53 373.00 288.00
C 354.67 288.00 336.33 288.00 318.00 288.00
C 318.87 282.50 317.86 277.72 316.00 272.00
C 337.00 272.00 358.00 272.00 379.00 272.00
M 369.00 304.00 
C 366.19 324.89 371.05 344.70 378.58 358.77 C 386.10 372.84 403.89 393.31 420.00 400.00
C 390.01 425.23 360.23 440.45 315.00 440.00 C 269.77 439.55 240.57 424.41 211.00 398.00
C 221.11 389.57 227.78 380.51 236.00 370.00
C 246.78 381.37 268.07 374.21 278.30 371.29 C 288.52 368.38 304.28 357.42 311.09 345.08 C 317.90 332.74 320.78 322.98 319.00 304.00
C 335.67 304.00 352.33 304.00 369.00 304.00
M 304.00 312.00 
C 304.80 327.12 295.53 341.10 286.25 349.59 C 276.96 358.08 257.23 363.53 244.75 357.20 C 232.27 350.87 224.32 343.43 212.25 337.61 C 200.17 331.79 192.61 322.62 179.00 321.00
C 183.45 314.56 190.51 316.38 198.75 314.40 C 207.00 312.41 212.20 313.28 223.02 312.98 C 233.85 312.67 250.68 311.46 263.00 312.00 C 275.32 312.54 291.35 311.60 304.00 312.00 Z"/>
</g>
<g fill="None" fill-opacity="0.0" stroke="#000000" stroke-opacity="0.99" stroke-width="0.3"><path d="
M 430.00 122.00 
C 400.97 107.45 379.09 95.54 342.70 85.31 C 306.30 75.07 264.44 70.12 216.00 72.00
C 216.00 88.33 216.00 104.67 216.00 121.00
C 289.80 120.99 356.70 139.24 412.00 166.00
C 417.59 150.06 424.37 138.18 430.00 122.00 Z"/>
</g>
<g fill="None" fill-opacity="0.0" stroke="#000000" stroke-opacity="0.97" stroke-width="0.3"><path d="
M 459.00 230.00 
C 441.58 211.67 419.07 186.61 401.30 178.71 C 383.54 170.81 366.24 162.83 346.30 157.71 C 326.36 152.58 306.83 144.66 285.25 142.20 C 263.67 139.74 240.35 134.97 214.67 136.33 C 188.99 137.69 171.90 148.39 149.00 154.00
C 262.50 159.98 370.09 190.61 459.00 230.00 Z"/>
</g>
<g fill="None" fill-opacity="0.0" stroke="#000000" stroke-opacity="0.94" stroke-width="0.3"><path d="
M 203.00 174.00 
C 181.32 174.05 161.09 168.46 138.00 170.00
C 149.02 173.79 156.56 178.40 166.08 181.87 C 175.60 185.34 183.11 191.67 194.00 192.00
C 194.04 184.27 200.61 180.89 203.00 174.00 Z"/>
</g>
<g fill="None" fill-opacity="0.0" stroke="#000000" stroke-opacity="0.99" stroke-width="0.3"><path d="
M 265.00 184.00 
C 250.02 183.35 235.87 179.22 221.00 177.00
C 213.41 186.97 208.85 194.26 204.40 204.25 C 199.95 214.25 203.09 229.76 196.00 240.00
C 170.23 239.68 147.99 244.38 128.75 252.41 C 109.51 260.44 95.45 269.17 76.25 288.25 C 57.05 307.32 47.64 323.80 36.00 343.00
C 47.84 337.40 59.14 334.31 70.08 329.13 C 81.02 323.95 91.19 320.53 104.25 316.26 C 117.31 312.00 135.57 314.24 150.08 310.13 C 164.59 306.03 169.83 302.93 185.25 300.39 C 200.67 297.86 211.29 296.30 231.00 296.00 C 250.71 295.70 283.14 296.22 304.00 296.00
C 298.83 250.89 287.24 216.38 265.00 184.00
M 243.00 216.00 
C 260.18 212.80 275.55 228.17 271.20 246.25 C 266.85 264.33 241.65 269.02 230.25 256.75 C 218.85 244.47 224.02 219.54 243.00 216.00 Z"/>
</g>
<g fill="None" fill-opacity="0.0" stroke="#000000" stroke-opacity="0.98" stroke-width="0.3"><path d="
M 392.00 220.00 
C 358.35 208.72 324.50 197.85 288.00 190.00
C 298.75 211.09 308.25 229.87 313.00 256.00
C 337.33 256.00 361.67 256.00 386.00 256.00
C 388.29 244.52 391.65 232.85 392.00 220.00 Z"/>
</g>
<g fill="None" fill-opacity="0.0" stroke="#000000" stroke-opacity="0.03" stroke-width="0.3"><path d="
M 243.00 216.00 
C 224.02 219.54 218.85 244.47 230.25 256.75 C 241.65 269.02 266.85 264.33 271.20 246.25 C 275.55 228.17 260.18 212.80 243.00 216.00
M 252.00 232.00 
C 255.23 235.59 256.10 238.79 256.00 244.00
C 252.44 247.32 248.94 248.04 244.00 248.00
C 239.09 243.34 239.25 236.70 244.00 232.00
C 246.68 233.33 249.11 232.21 252.00 232.00 Z"/>
</g>
<g fill="None" fill-opacity="0.0" stroke="#000000" stroke-opacity="0.87" stroke-width="0.3"><path d="
M 437.00 240.00 
C 434.96 234.52 428.05 235.22 423.30 232.71 C 418.54 230.20 412.93 228.00 407.00 226.00
C 408.72 229.59 405.88 231.57 406.00 235.00
C 416.82 236.14 426.17 237.16 437.00 240.00 Z"/>
</g>
<g fill="None" fill-opacity="0.0" stroke="#000000" stroke-opacity="0.95" stroke-width="0.3"><path d="
M 252.00 232.00 
C 249.11 232.21 246.68 233.33 244.00 232.00
C 239.25 236.70 239.09 243.34 244.00 248.00
C 248.94 248.04 252.44 247.32 256.00 244.00
C 256.10 238.79 255.23 235.59 252.00 232.00 Z"/>
</g>
<g fill="None" fill-opacity="0.0" stroke="#000000" stroke-opacity="0.99" stroke-width="0.3"><path d="
M 379.00 272.00 
C 358.00 272.00 337.00 272.00 316.00 272.00
C 317.86 277.72 318.87 282.50 318.00 288.00
C 336.33 288.00 354.67 288.00 373.00 288.00
C 374.38 281.53 376.29 277.51 379.00 272.00 Z"/>
</g>
<g fill="None" fill-opacity="0.0" stroke="#000000" stroke-opacity="0.99" stroke-width="0.3"><path d="
M 369.00 304.00 
C 352.33 304.00 335.67 304.00 319.00 304.00
C 320.78 322.98 317.90 332.74 311.09 345.08 C 304.28 357.42 288.52 368.38 278.30 371.29 C 268.07 374.21 246.78 381.37 236.00 370.00
C 227.78 380.51 221.11 389.57 211.00 398.00
C 240.57 424.41 269.77 439.55 315.00 440.00 C 360.23 440.45 390.01 425.23 420.00 400.00
C 403.89 393.31 386.10 372.84 378.58 358.77 C 371.05 344.70 366.19 324.89 369.00 304.00 Z"/>
</g>
<g fill="None" fill-opacity="0.0" stroke="#000000" stroke-opacity="0.98" stroke-width="0.3"><path d="
M 304.00 312.00 
C 291.35 311.60 275.32 312.54 263.00 312.00 C 250.68 311.46 233.85 312.67 223.02 312.98 C 212.20 313.28 207.00 312.41 198.75 314.40 C 190.51 316.38 183.45 314.56 179.00 321.00
C 192.61 322.62 200.17 331.79 212.25 337.61 C 224.32 343.43 232.27 350.87 244.75 357.20 C 257.23 363.53 276.96 358.08 286.25 349.59 C 295.53 341.10 304.80 327.12 304.00 312.00 Z"/>
</g>
<g fill="#000000" fill-opacity="0.00" stroke="None">
<path d="
M 0.00 512.00 
L 512.00 512.00
L 512.00 0.00
L 0.00 0.00
L 0.00 512.00
M 430.00 122.00 
C 424.37 138.18 417.59 150.06 412.00 166.00
C 356.70 139.24 289.80 120.99 216.00 121.00
C 216.00 104.67 216.00 88.33 216.00 72.00
C 264.44 70.12 306.30 75.07 342.70 85.31 C 379.09 95.54 400.97 107.45 430.00 122.00
M 459.00 230.00 
C 370.09 190.61 262.50 159.98 149.00 154.00
C 171.90 148.39 188.99 137.69 214.67 136.33 C 240.35 134.97 263.67 139.74 285.25 142.20 C 306.83 144.66 326.36 152.58 346.30 157.71 C 366.24 162.83 383.54 170.81 401.30 178.71 C 419.07 186.61 441.58 211.67 459.00 230.00
M 203.00 174.00 
C 200.61 180.89 194.04 184.27 194.00 192.00
C 183.11 191.67 175.60 185.34 166.08 181.87 C 156.56 178.40 149.02 173.79 138.00 170.00
C 161.09 168.46 181.32 174.05 203.00 174.00
M 265.00 184.00 
C 287.24 216.38 298.83 250.89 304.00 296.00
C 283.14 296.22 250.71 295.70 231.00 296.00 C 211.29 296.30 200.67 297.86 185.25 300.39 C 169.83 302.93 164.59 306.03 150.08 310.13 C 135.57 314.24 117.31 312.00 104.25 316.26 C 91.19 320.53 81.02 323.95 70.08 329.13 C 59.14 334.31 47.84 337.40 36.00 343.00
C 47.64 323.80 57.05 307.32 76.25 288.25 C 95.45 269.17 109.51 260.44 128.75 252.41 C 147.99 244.38 170.23 239.68 196.00 240.00
C 203.09 229.76 199.95 214.25 204.40 204.25 C 208.85 194.26 213.41 186.97 221.00 177.00
C 235.87 179.22 250.02 183.35 265.00 184.00
M 392.00 220.00 
C 391.65 232.85 388.29 244.52 386.00 256.00
C 361.67 256.00 337.33 256.00 313.00 256.00
C 308.25 229.87 298.75 211.09 288.00 190.00
C 324.50 197.85 358.35 208.72 392.00 220.00
M 437.00 240.00 
C 426.17 237.16 416.82 236.14 406.00 235.00
C 405.88 231.57 408.72 229.59 407.00 226.00
C 412.93 228.00 418.54 230.20 423.30 232.71 C 428.05 235.22 434.96 234.52 437.00 240.00
M 379.00 272.00 
C 376.29 277.51 374.38 281.53 373.00 288.00
C 354.67 288.00 336.33 288.00 318.00 288.00
C 318.87 282.50 317.86 277.72 316.00 272.00
C 337.00 272.00 358.00 272.00 379.00 272.00
M 369.00 304.00 
C 366.19 324.89 371.05 344.70 378.58 358.77 C 386.10 372.84 403.89 393.31 420.00 400.00
C 390.01 425.23 360.23 440.45 315.00 440.00 C 269.77 439.55 240.57 424.41 211.00 398.00
C 221.11 389.57 227.78 380.51 236.00 370.00
C 246.78 381.37 268.07 374.21 278.30 371.29 C 288.52 368.38 304.28 357.42 311.09 345.08 C 317.90 332.74 320.78 322.98 319.00 304.00
C 335.67 304.00 352.33 304.00 369.00 304.00
M 304.00 312.00 
C 304.80 327.12 295.53 341.10 286.25 349.59 C 276.96 358.08 257.23 363.53 244.75 357.20 C 232.27 350.87 224.32 343.43 212.25 337.61 C 200.17 331.79 192.61 322.62 179.00 321.00
C 183.45 314.56 190.51 316.38 198.75 314.40 C 207.00 312.41 212.20 313.28 223.02 312.98 C 233.85 312.67 250.68 311.46 263.00 312.00 C 275.32 312.54 291.35 311.60 304.00 312.00 Z"/>
</g>
<g fill="#000000" fill-opacity="0.99" stroke="None">
<path d="
M 430.00 122.00 
C 400.97 107.45 379.09 95.54 342.70 85.31 C 306.30 75.07 264.44 70.12 216.00 72.00
C 216.00 88.33 216.00 104.67 216.00 121.00
C 289.80 120.99 356.70 139.24 412.00 166.00
C 417.59 150.06 424.37 138.18 430.00 122.00 Z"/>
</g>
<g fill="#000000" fill-opacity="0.97" stroke="None">
<path d="
M 459.00 230.00 
C 441.58 211.67 419.07 186.61 401.30 178.71 C 383.54 170.81 366.24 162.83 346.30 157.71 C 326.36 152.58 306.83 144.66 285.25 142.20 C 263.67 139.74 240.35 134.97 214.67 136.33 C 188.99 137.69 171.90 148.39 149.00 154.00
C 262.50 159.98 370.09 190.61 459.00 230.00 Z"/>
</g>
<g fill="#000000" fill-opacity="0.94" stroke="None">
<path d="
M 203.00 174.00 
C 181.32 174.05 161.09 168.46 138.00 170.00
C 149.02 173.79 156.56 178.40 166.08 181.87 C 175.60 185.34 183.11 191.67 194.00 192.00
C 194.04 184.27 200.61 180.89 203.00 174.00 Z"/>
</g>
<g fill="#000000" fill-opacity="0.99" stroke="None">
<path d="
M 265.00 184.00 
C 250.02 183.35 235.87 179.22 221.00 177.00
C 213.41 186.97 208.85 194.26 204.40 204.25 C 199.95 214.25 203.09 229.76 196.00 240.00
C 170.23 239.68 147.99 244.38 128.75 252.41 C 109.51 260.44 95.45 269.17 76.25 288.25 C 57.05 307.32 47.64 323.80 36.00 343.00
C 47.84 337.40 59.14 334.31 70.08 329.13 C 81.02 323.95 91.19 320.53 104.25 316.26 C 117.31 312.00 135.57 314.24 150.08 310.13 C 164.59 306.03 169.83 302.93 185.25 300.39 C 200.67 297.86 211.29 296.30 231.00 296.00 C 250.71 295.70 283.14 296.22 304.00 296.00
C 298.83 250.89 287.24 216.38 265.00 184.00
M 243.00 216.00 
C 260.18 212.80 275.55 228.17 271.20 246.25 C 266.85 264.33 241.65 269.02 230.25 256.75 C 218.85 244.47 224.02 219.54 243.00 216.00 Z"/>
</g>
<g fill="#000000" fill-opacity="0.98" stroke="None">
<path d="
M 392.00 220.00 
C 358.35 208.72 324.50 197.85 288.00 190.00
C 298.75 211.09 308.25 229.87 313.00 256.00
C 337.33 256.00 361.67 256.00 386.00 256.00
C 388.29 244.52 391.65 232.85 392.00 220.00 Z"/>
</g>
<g fill="#000000" fill-opacity="0.03" stroke="None">
<path d="
M 243.00 216.00 
C 224.02 219.54 218.85 244.47 230.25 256.75 C 241.65 269.02 266.85 264.33 271.20 246.25 C 275.55 228.17 260.18 212.80 243.00 216.00
M 252.00 232.00 
C 255.23 235.59 256.10 238.79 256.00 244.00
C 252.44 247.32 248.94 248.04 244.00 248.00
C 239.09 243.34 239.25 236.70 244.00 232.00
C 246.68 233.33 249.11 232.21 252.00 232.00 Z"/>
</g>
<g fill="#000000" fill-opacity="0.87" stroke="None">
<path d="
M 437.00 240.00 
C 434.96 234.52 428.05 235.22 423.30 232.71 C 418.54 230.20 412.93 228.00 407.00 226.00
C 408.72 229.59 405.88 231.57 406.00 235.00
C 416.82 236.14 426.17 237.16 437.00 240.00 Z"/>
</g>
<g fill="#000000" fill-opacity="0.95" stroke="None">
<path d="
M 252.00 232.00 
C 249.11 232.21 246.68 233.33 244.00 232.00
C 239.25 236.70 239.09 243.34 244.00 248.00
C 248.94 248.04 252.44 247.32 256.00 244.00
C 256.10 238.79 255.23 235.59 252.00 232.00 Z"/>
</g>
<g fill="#000000" fill-opacity="0.99" stroke="None">
<path d="
M 379.00 272.00 
C 358.00 272.00 337.00 272.00 316.00 272.00
C 317.86 277.72 318.87 282.50 318.00 288.00
C 336.33 288.00 354.67 288.00 373.00 288.00
C 374.38 281.53 376.29 277.51 379.00 272.00 Z"/>
</g>
<g fill="#000000" fill-opacity="0.99" stroke="None">
<path d="
M 369.00 304.00 
C 352.33 304.00 335.67 304.00 319.00 304.00
C 320.78 322.98 317.90 332.74 311.09 345.08 C 304.28 357.42 288.52 368.38 278.30 371.29 C 268.07 374.21 246.78 381.37 236.00 370.00
C 227.78 380.51 221.11 389.57 211.00 398.00
C 240.57 424.41 269.77 439.55 315.00 440.00 C 360.23 440.45 390.01 425.23 420.00 400.00
C 403.89 393.31 386.10 372.84 378.58 358.77 C 371.05 344.70 366.19 324.89 369.00 304.00 Z"/>
</g>
<g fill="#000000" fill-opacity="0.98" stroke="None">
<path d="
M 304.00 312.00 
C 291.35 311.60 275.32 312.54 263.00 312.00 C 250.68 311.46 233.85 312.67 223.02 312.98 C 212.20 313.28 207.00 312.41 198.75 314.40 C 190.51 316.38 183.45 314.56 179.00 321.00
C 192.61 322.62 200.17 331.79 212.25 337.61 C 224.32 343.43 232.27 350.87 244.75 357.20 C 257.23 363.53 276.96 358.08 286.25 349.59 C 295.53 341.10 304.80 327.12 304.00 312.00 Z"/>
</g>
</svg>